<?xml version="1.0" encoding="utf-8"?>
<!-- Generator: Adobe Illustrator 18.0.0, SVG Export Plug-In . SVG Version: 6.00 Build 0)  -->
<!DOCTYPE svg PUBLIC "-//W3C//DTD SVG 1.1//EN" "http://www.w3.org/Graphics/SVG/1.1/DTD/svg11.dtd">
<svg version="1.1" id="Layer_1" xmlns="http://www.w3.org/2000/svg" xmlns:xlink="http://www.w3.org/1999/xlink" x="0px" y="0px"
	 viewBox="10 162 494 180" enable-background="new 10 162 494 180" xml:space="preserve">
<circle id="XMLID_191_" fill="#1E87DA" cx="101.9" cy="252.3" r="83.4"/>
<path id="XMLID_67_" fill="#0C73BA" d="M18.5,251c0-46.1,37.3-83.4,83.4-83.4s83.4,37.3,83.4,83.4H18.5z"/>
<circle id="XMLID_73_" opacity="0.49" fill="#064060" enable-background="new    " cx="106" cy="209.7" r="17.1"/>
<circle id="XMLID_190_" fill="#FFFFFF" cx="102.1" cy="208.4" r="16.8"/>
<circle id="XMLID_72_" opacity="0.49" fill="#064060" enable-background="new    " cx="106" cy="263" r="36.2"/>
<circle id="XMLID_189_" fill="#FFFFFF" cx="101.9" cy="261.5" r="33.6"/>
<rect id="XMLID_188_" x="197.3" y="192.4" fill="#FFFFFF" width="296.9" height="1.7"/>
<rect id="XMLID_187_" x="197.3" y="310.4" fill="#FFFFFF" width="296.9" height="1.7"/>
<g id="XMLID_66_">
	<path id="XMLID_59_" fill="#0C73BA" d="M215.5,266.5l-17.5-59h14.5l10.6,40.3l10.6-40.3h13.2l-17.5,59v29.3h-13.9V266.5z"/>
	<path id="XMLID_57_" fill="#0C73BA" d="M254.1,220.8v-13.4h13.4v12l-6.1,14h-5.7l3.7-12.6H254.1z"/>
	<path id="XMLID_55_" fill="#0C73BA" d="M288.4,244.7h19v12.6h-19v25.9h24v12.6h-37.9v-88.4h37.9v12.6h-24V244.7z"/>
	<path id="XMLID_47_" fill="#0C73BA" d="M325.8,207.4h13.9v75.7h22.8v12.6h-36.7L325.8,207.4L325.8,207.4z"/>
	<path id="XMLID_45_" fill="#0C73BA" d="M375.8,207.4h13.9v75.7h22.8v12.6h-36.7L375.8,207.4L375.8,207.4z"/>
	<path id="XMLID_42_" fill="#0C73BA" d="M422.8,228.6c0-14.1,7.5-22.2,21.1-22.2c13.7,0,21.1,8.1,21.1,22.2v45.9
		c0,14.1-7.5,22.2-21.1,22.2c-13.7,0-21.1-8.1-21.1-22.2V228.6z M436.7,275.5c0,6.3,2.8,8.7,7.2,8.7s7.2-2.4,7.2-8.7v-47.7
		c0-6.3-2.8-8.7-7.2-8.7s-7.2,2.4-7.2,8.7V275.5z"/>
	<path id="XMLID_21_" fill="#0C73BA" d="M482,276.2l-1.8-31.9v-36.9h13.9v36.9l-1.8,31.9H482z M493.9,282.4v13.4h-13.4v-13.4H493.9z
		"/>
</g>
</svg>
