<?xml version="1.0" encoding="UTF-8" standalone="no"?>
<svg width="125px" height="51px" viewBox="0 0 125 51" version="1.1" xmlns="http://www.w3.org/2000/svg" xmlns:xlink="http://www.w3.org/1999/xlink" xmlns:sketch="http://www.bohemiancoding.com/sketch/ns">
    <!-- Generator: Sketch 3.3.3 (12081) - http://www.bohemiancoding.com/sketch -->
    <title>XMLID_66_</title>
    <desc>Created with Sketch.</desc>
    <defs></defs>
    <g id="Page-1" stroke="none" stroke-width="1" fill="none" fill-rule="evenodd" sketch:type="MSPage">
        <g id="yello_logo" sketch:type="MSLayerGroup" transform="translate(-75.000000, -10.000000)">
            <g id="XMLID_66_" transform="translate(74.475924, 10.349384)" sketch:type="MSShapeGroup">
                <path d="M8.39081747,31.2407615 L1.02239642,6.44792833 L7.11422172,6.44792833 L11.5711086,23.3572228 L16.0279955,6.44792833 L21.5823068,6.44792833 L14.2138858,31.2407615 L14.2138858,43.5363942 L8.39081747,43.5363942 L8.39081747,31.2407615 L8.39081747,31.2407615 Z" id="XMLID_59_" fill="#0C73BA"></path>
                <path d="M24.6058231,12.0470325 L24.6058231,6.42553191 L30.2273236,6.42553191 L30.2273236,11.4647256 L27.6741321,17.3549832 L25.300112,17.3549832 L26.8454647,12.0470325 L24.6058231,12.0470325 L24.6058231,12.0470325 Z" id="XMLID_57_" fill="#0C73BA"></path>
                <path d="M39.0291153,22.0806271 L47.0246361,22.0806271 L47.0246361,27.3885778 L39.0291153,27.3885778 L39.0291153,38.2508399 L49.1075028,38.2508399 L49.1075028,43.5587906 L33.206047,43.5587906 L33.206047,6.42553191 L49.1075028,6.42553191 L49.1075028,11.7334826 L39.0291153,11.7334826 L39.0291153,22.0806271 L39.0291153,22.0806271 Z" id="XMLID_55_" fill="#0C73BA"></path>
                <path d="M54.7066069,6.42553191 L60.5296753,6.42553191 L60.5296753,38.2284434 L70.1153415,38.2284434 L70.1153415,43.5363942 L54.6842105,43.5363942 L54.6842105,6.42553191 L54.7066069,6.42553191 Z" id="XMLID_47_" fill="#0C73BA"></path>
                <path d="M75.7144457,6.42553191 L81.537514,6.42553191 L81.537514,38.2284434 L91.1231803,38.2284434 L91.1231803,43.5363942 L75.6920493,43.5363942 L75.6920493,6.42553191 L75.7144457,6.42553191 Z" id="XMLID_45_" fill="#0C73BA"></path>
                <path d="M95.4456887,15.3393057 C95.4456887,9.40425532 98.581187,6.02239642 104.292273,6.02239642 C110.025756,6.02239642 113.138858,9.40425532 113.138858,15.3393057 L113.138858,34.6226204 C113.138858,40.5576708 110.003359,43.9395297 104.292273,43.9395297 C98.5587906,43.9395297 95.4456887,40.5576708 95.4456887,34.6226204 L95.4456887,15.3393057 L95.4456887,15.3393057 Z M101.291153,35.0033595 C101.291153,37.6461366 102.455767,38.6539754 104.31467,38.6539754 C106.173572,38.6539754 107.338186,37.6461366 107.338186,35.0033595 L107.338186,14.9585666 C107.338186,12.3157895 106.173572,11.3079507 104.31467,11.3079507 C102.455767,11.3079507 101.291153,12.3157895 101.291153,14.9585666 L101.291153,35.0033595 L101.291153,35.0033595 Z" id="XMLID_42_" fill="#0C73BA"></path>
                <path d="M120.305711,35.3169093 L119.566629,21.9014558 L119.566629,6.42553191 L125.389698,6.42553191 L125.389698,21.9014558 L124.650616,35.3169093 L120.305711,35.3169093 L120.305711,35.3169093 Z M125.300112,37.9148936 L125.300112,43.5363942 L119.678611,43.5363942 L119.678611,37.9148936 L125.300112,37.9148936 L125.300112,37.9148936 Z" id="XMLID_21_" fill="#0C73BA"></path>
                <rect id="XMLID_188_" fill="#FFFFFF" x="0.753639418" y="0.132138858" width="124.658455" height="0.71668533"></rect>
                <rect id="XMLID_187_" fill="#FFFFFF" x="0.753639418" y="49.6730123" width="124.658455" height="0.71668533"></rect>
            </g>
        </g>
    </g>
</svg>