<?xml version="1.0" encoding="UTF-8" standalone="no"?>
<svg width="440px" height="158px" viewBox="0 0 440 158" version="1.1" xmlns="http://www.w3.org/2000/svg" xmlns:xlink="http://www.w3.org/1999/xlink" xmlns:sketch="http://www.bohemiancoding.com/sketch/ns">
    <!-- Generator: Sketch 3.3.3 (12081) - http://www.bohemiancoding.com/sketch -->
    <title>yello_logo_white</title>
    <desc>Created with Sketch.</desc>
    <defs></defs>
    <g id="Page-1" stroke="none" stroke-width="1" fill="none" fill-rule="evenodd" sketch:type="MSPage">
        <g id="yello_logo_white" sketch:type="MSLayerGroup" transform="translate(2.000000, 2.000000)">
            <g id="Page-1" sketch:type="MSShapeGroup">
                <g id="yello_logo">
                    <ellipse id="XMLID_191_" stroke="#FFFFFF" stroke-width="4" fill="#1E87DA" cx="77.0402516" cy="77.275" rx="76.5811321" ry="76.45"></ellipse>
                    <path d="M77.0402516,1.30625 C117.518461,1.30625 151.537926,37.8583339 151.537926,74.4104177 L2.69100715,74.4104177 C2.69100715,37.8583339 36.5620416,1.30625 77.0402516,1.30625 Z" id="XMLID_67_" fill="#0C73BA"></path>
                    <ellipse id="XMLID_73_" opacity="0.49" fill="#064060" cx="80.8050314" cy="38.225" rx="15.7018868" ry="15.675"></ellipse>
                    <ellipse id="XMLID_190_" fill="#FFFFFF" cx="77.2238994" cy="37.0333333" rx="15.4264151" ry="15.4"></ellipse>
                    <ellipse id="XMLID_72_" opacity="0.49" fill="#064060" cx="80.8050314" cy="87.0833333" rx="33.2402516" ry="33.1833333"></ellipse>
                    <ellipse id="XMLID_189_" fill="#FFFFFF" cx="77.0402516" cy="85.7083333" rx="30.8528302" ry="30.8"></ellipse>
                    <rect id="XMLID_188_" fill="#FFFFFF" x="164.640252" y="22.3666667" width="272.625157" height="1.55833333"></rect>
                    <rect id="XMLID_187_" fill="#FFFFFF" x="164.640252" y="130.533333" width="272.625157" height="1.55833333"></rect>
                    <g id="XMLID_66_" transform="translate(165.283019, 34.833333)" fill="#FFFFFF">
                        <path d="M16.0691824,55.4583333 L0,1.375 L13.3144654,1.375 L23.0477987,38.3166667 L32.7811321,1.375 L44.9018868,1.375 L28.8327044,55.4583333 L28.8327044,82.3166667 L16.0691824,82.3166667 L16.0691824,55.4583333 L16.0691824,55.4583333 Z" id="XMLID_59_"></path>
                        <path d="M51.5132075,13.5666667 L51.5132075,1.28333333 L63.8176101,1.28333333 L63.8176101,12.2833333 L58.2163522,25.1166667 L52.9823899,25.1166667 L56.3798742,13.5666667 L51.5132075,13.5666667 L51.5132075,13.5666667 Z" id="XMLID_57_"></path>
                        <path d="M83.008805,35.475 L100.455346,35.475 L100.455346,47.025 L83.008805,47.025 L83.008805,70.7666667 L105.046541,70.7666667 L105.046541,82.3166667 L70.245283,82.3166667 L70.245283,1.28333333 L105.046541,1.28333333 L105.046541,12.8333333 L83.008805,12.8333333 L83.008805,35.475 L83.008805,35.475 Z" id="XMLID_55_"></path>
                        <path d="M117.350943,1.28333333 L130.114465,1.28333333 L130.114465,70.675 L151.050314,70.675 L151.050314,82.225 L117.350943,82.225 L117.350943,1.28333333 L117.350943,1.28333333 Z" id="XMLID_47_"></path>
                        <path d="M163.262893,1.28333333 L176.026415,1.28333333 L176.026415,70.675 L196.962264,70.675 L196.962264,82.225 L163.262893,82.225 L163.262893,1.28333333 L163.262893,1.28333333 Z" id="XMLID_45_"></path>
                        <path d="M206.420126,20.7166667 C206.420126,7.79166667 213.306918,0.366666667 225.794969,0.366666667 C238.374843,0.366666667 245.169811,7.79166667 245.169811,20.7166667 L245.169811,62.7916667 C245.169811,75.7166667 238.283019,83.1416667 225.794969,83.1416667 C213.215094,83.1416667 206.420126,75.7166667 206.420126,62.7916667 L206.420126,20.7166667 L206.420126,20.7166667 Z M219.183648,63.7083333 C219.183648,69.4833333 221.754717,71.6833333 225.794969,71.6833333 C229.83522,71.6833333 232.406289,69.4833333 232.406289,63.7083333 L232.406289,19.9833333 C232.406289,14.2083333 229.83522,12.0083333 225.794969,12.0083333 C221.754717,12.0083333 219.183648,14.2083333 219.183648,19.9833333 L219.183648,63.7083333 L219.183648,63.7083333 Z" id="XMLID_42_"></path>
                        <path d="M260.779874,64.35 L259.127044,35.1083333 L259.127044,1.28333333 L271.890566,1.28333333 L271.890566,35.1083333 L270.237736,64.35 L260.779874,64.35 L260.779874,64.35 Z M271.706918,70.0333333 L271.706918,82.3166667 L259.402516,82.3166667 L259.402516,70.0333333 L271.706918,70.0333333 L271.706918,70.0333333 Z" id="XMLID_21_"></path>
                    </g>
                </g>
            </g>
        </g>
    </g>
</svg>